<svg xmlns="http://www.w3.org/2000/svg" viewBox="0 0 16 128" fill="#e1e1e1">
    <rect x="4" y="4" width="4" height="4"></rect>
    <rect x="4" y="12" width="4" height="4"></rect>
    <rect x="4" y="20" width="4" height="4"></rect>
    <rect x="4" y="28" width="4" height="4"></rect>
    <rect x="4" y="36" width="4" height="4"></rect>
    <rect x="4" y="44" width="4" height="4"></rect>
    <rect x="4" y="52" width="4" height="4"></rect>
    <rect x="4" y="60" width="4" height="4"></rect>
    <rect x="4" y="68" width="4" height="4"></rect>
    <rect x="4" y="76" width="4" height="4"></rect>
    <rect x="4" y="84" width="4" height="4"></rect>
    <rect x="4" y="92" width="4" height="4"></rect>
    <rect x="4" y="100" width="4" height="4"></rect>
    <rect x="4" y="108" width="4" height="4"></rect>
    <rect x="4" y="116" width="4" height="4"></rect>
    <rect x="4" y="124" width="4" height="4"></rect>
    <rect x="12" y="4" width="4" height="4"></rect>
    <rect x="12" y="12" width="4" height="4"></rect>
    <rect x="12" y="20" width="4" height="4"></rect>
    <rect x="12" y="28" width="4" height="4"></rect>
    <rect x="12" y="36" width="4" height="4"></rect>
    <rect x="12" y="44" width="4" height="4"></rect>
    <rect x="12" y="52" width="4" height="4"></rect>
    <rect x="12" y="60" width="4" height="4"></rect>
    <rect x="12" y="68" width="4" height="4"></rect>
    <rect x="12" y="76" width="4" height="4"></rect>
    <rect x="12" y="84" width="4" height="4"></rect>
    <rect x="12" y="92" width="4" height="4"></rect>
    <rect x="12" y="100" width="4" height="4"></rect>
    <rect x="12" y="108" width="4" height="4"></rect>
    <rect x="12" y="116" width="4" height="4"></rect>
    <rect x="12" y="124" width="4" height="4"></rect>
</svg>